<?xml version="1.0" encoding="UTF-8" standalone="no"?>
<svg
   xmlns:dc="http://purl.org/dc/elements/1.1/"
   xmlns:cc="http://creativecommons.org/ns#"
   xmlns:rdf="http://www.w3.org/1999/02/22-rdf-syntax-ns#"
   xmlns:svg="http://www.w3.org/2000/svg"
   xmlns="http://www.w3.org/2000/svg"
   xmlns:sodipodi="http://sodipodi.sourceforge.net/DTD/sodipodi-0.dtd"
   xmlns:inkscape="http://www.inkscape.org/namespaces/inkscape"
   enable-background="new 0 0 256 256"
   height="256px"
   id="Layer_1"
   version="1.1"
   viewBox="0 0 256 256"
   width="256px"
   xml:space="preserve"
   inkscape:version="0.48.4 r9939"
   sodipodi:docname="arrow_circle.svg"><metadata
     id="metadata9"><rdf:RDF><cc:Work
         rdf:about=""><dc:format>image/svg+xml</dc:format><dc:type
           rdf:resource="http://purl.org/dc/dcmitype/StillImage" /></cc:Work></rdf:RDF></metadata><defs
     id="defs7" /><sodipodi:namedview
     pagecolor="#ffffff"
     bordercolor="#666666"
     borderopacity="1"
     objecttolerance="10"
     gridtolerance="10"
     guidetolerance="10"
     inkscape:pageopacity="0"
     inkscape:pageshadow="2"
     inkscape:window-width="1600"
     inkscape:window-height="845"
     id="namedview5"
     showgrid="false"
     inkscape:zoom="2.6074563"
     inkscape:cx="232.22528"
     inkscape:cy="-10.140607"
     inkscape:window-x="0"
     inkscape:window-y="27"
     inkscape:window-maximized="1"
     inkscape:current-layer="Layer_1"
     inkscape:object-paths="true" /><path
     d="m 128,243.174 c -1.637,0 -3.2755,-0.6255 -4.525,-1.875 L 66.728,184.552 c -2.4995,-2.4995 -2.5,-6.552 0,-9.05 2.497,-2.5 6.553,-2.5 9.05,0 l 52.222,52.22 52.223,-52.22 c 2.49807,-2.49793 6.55175,-2.49875 9.049,0 2.49875,2.50025 2.5,6.552 0,9.05 l -56.746,56.747 c -1.249,1.25 -2.888,1.875 -4.526,1.875 z M 256,252 C 256,181.42 198.58,124 128,124 57.42,124 0,181.42 0,252 c 0,70.58 69.057467,122 128,122 58.94253,0 128,-51.42 128,-122 z m -12.8,0 C 243.2,315.521 191.521,361.2 128,361.2 64.478,361.2 12.8,315.521 12.8,252 12.8,188.478 64.478,136.8 128,136.8 c 63.521,0 115.2,51.678 115.2,115.2 z"
     id="path3"
     inkscape:connector-curvature="0"
     style="fill:#000000"
     sodipodi:nodetypes="ssscccssccssssassssss" /></svg>